<?xml version="1.0" encoding="utf-8"?>
<!-- Generator: Adobe Illustrator 27.5.0, SVG Export Plug-In . SVG Version: 6.00 Build 0)  -->
<svg version="1.1" xmlns="http://www.w3.org/2000/svg" xmlns:xlink="http://www.w3.org/1999/xlink" x="0px" y="0px"
	 viewBox="0 0 500 500" style="enable-background:new 0 0 500 500;" xml:space="preserve">
<g id="BACKGROUND">
	<radialGradient id="SVGID_1_" cx="250" cy="250" r="250" gradientUnits="userSpaceOnUse">
		<stop  offset="0" style="stop-color:#FFFFFF"/>
		<stop  offset="1" style="stop-color:#F2F2F2"/>
	</radialGradient>
	<rect style="fill:url(#SVGID_1_);" width="500" height="500"/>
</g>
<g id="OBJECTS">
	<g>
		
			<linearGradient id="SVGID_00000106833959804040663200000011430207675254470030_" gradientUnits="userSpaceOnUse" x1="183.0306" y1="232.9281" x2="286.9377" y2="232.9281" gradientTransform="matrix(-1 0 0 1 517.8227 0)">
			<stop  offset="0" style="stop-color:#FF5D12"/>
			<stop  offset="1" style="stop-color:#FFBB1B"/>
		</linearGradient>
		<path style="fill:url(#SVGID_00000106833959804040663200000011430207675254470030_);" d="M326.819,176.935
			c0-0.334-0.01-0.666-0.014-1c0.001-0.202,0.014-0.4,0.014-0.602c0-1.507-0.045-3.003-0.121-4.492
			c5.182,11.169,8.094,23.605,8.094,36.73c0,48.294-39.15,87.444-87.444,87.444c-1.72,0-3.425-0.063-5.121-0.161
			c-4.018-9.624-7.571-19.331-11.343-28.969c4.504-0.112,8.892-0.678,13.135-1.631C290.154,261.84,326.819,223.671,326.819,176.935z
			"/>
		
			<linearGradient id="SVGID_00000149346015608661933340000004080257640156655292_" gradientUnits="userSpaceOnUse" x1="212.263" y1="270.0892" x2="263.9016" y2="273.2572" gradientTransform="matrix(-1 0 0 1 517.8227 0)">
			<stop  offset="0" style="stop-color:#FFFFFF"/>
			<stop  offset="1" style="stop-color:#FF5D12"/>
		</linearGradient>
		<path style="fill:url(#SVGID_00000149346015608661933340000004080257640156655292_);" d="M244.038,288.418
			c-1.564-0.136-3.109-0.327-4.645-0.543c-2.909-7.326-5.647-14.678-8.508-21.99c4.504-0.112,8.892-0.678,13.135-1.631
			c4.892-0.256,9.669-0.937,14.315-1.965c6.43,3.804,13.788,6.269,21.729,6.959c16.162,1.405,31.221-4.818,41.645-15.674
			C304.195,277.014,275.332,291.139,244.038,288.418z"/>
		
			<linearGradient id="SVGID_00000067918420222324418100000008370564843102050723_" gradientUnits="userSpaceOnUse" x1="177.4508" y1="258.804" x2="321.709" y2="258.804">
			<stop  offset="0" style="stop-color:#FF5D12"/>
			<stop  offset="1" style="stop-color:#FFBB1B"/>
		</linearGradient>
		<path style="fill:url(#SVGID_00000067918420222324418100000008370564843102050723_);" d="M281.578,272.797
			c-22.42,0-41.486-14.323-48.57-34.315c-0.022,0.004-0.044,0.006-0.066,0.009c-1.704-5.662-4.161-10.995-7.239-15.899
			c-17.422,10.591-33.647,23.207-48.251,37.457c15.945,21.225,41.304,34.966,69.897,34.966c31.412,0,58.943-16.572,74.361-41.44
			C312.264,265.293,297.801,272.797,281.578,272.797z"/>
		
			<linearGradient id="SVGID_00000183957609059529361560000018195592038047452560_" gradientUnits="userSpaceOnUse" x1="247.8614" y1="250.3701" x2="187.7601" y2="254.7678">
			<stop  offset="0" style="stop-color:#FFFFFF"/>
			<stop  offset="1" style="stop-color:#FF5D12"/>
		</linearGradient>
		<path style="fill:url(#SVGID_00000183957609059529361560000018195592038047452560_);" d="M198.026,266.707
			c-0.801-6.226,0.266-13.712,5.772-16.728c5.485-3.004,12.126,0.003,18.287,1.075c5.421,0.943,11.099,0.233,16.164-1.909
			c-2.135-3.313-3.902-6.887-5.241-10.663c-0.022,0.004-0.044,0.006-0.066,0.009c-1.704-5.662-4.161-10.995-7.239-15.899
			c-15.16,9.216-29.411,19.968-42.48,31.993c0.739,3.766,1.915,7.462,3.373,11.012c1.387,3.377,3.185,6.533,5.266,9.511
			c3.553,2.927,7.336,5.585,11.326,7.928C200.535,277.948,198.758,272.401,198.026,266.707z"/>
		
			<linearGradient id="SVGID_00000152973106567346795170000011601116788903091132_" gradientUnits="userSpaceOnUse" x1="195.3298" y1="177.8746" x2="323.2058" y2="177.8746" gradientTransform="matrix(-1 0 0 1 517.8227 0)">
			<stop  offset="0" style="stop-color:#FFBB1B"/>
			<stop  offset="1" style="stop-color:#FF5D12"/>
		</linearGradient>
		<path style="fill:url(#SVGID_00000152973106567346795170000011601116788903091132_);" d="M258.481,112.078
			c24.558,1.823,47.66,17.286,58.707,39.295c0.365,0.727,0.716,1.46,1.053,2.198c2.509,5.494,3.83,11.456,4.137,17.488l0,0
			c0.078,1.53,0.115,2.927,0.115,4.273c0,20.037-7.229,39.389-20.357,54.491c-4.666,5.368-9.971,10.064-15.745,14.03
			c10.457-12.109,15.761-28.708,13.685-44.614c-2.6-19.92-16.661-37.931-35.355-45.287c2.354,1.955,4.239,4.472,5.452,7.281
			c-8.021-5.857-17.35-9.913-27.104-11.785c2.545,2.276,5.001,4.301,7.546,6.577c-19.351,6.956-42.188,1.484-55.997-13.751
			C208.791,122.139,233.923,110.256,258.481,112.078z"/>
		
			<linearGradient id="SVGID_00000064332117260475665450000001834746872323106992_" gradientUnits="userSpaceOnUse" x1="195.3298" y1="171.4522" x2="321.1027" y2="171.4522" gradientTransform="matrix(-1 0 0 1 517.8227 0)">
			<stop  offset="0" style="stop-color:#FF5D12"/>
			<stop  offset="1" style="stop-color:#FFBB1B"/>
		</linearGradient>
		<path style="fill:url(#SVGID_00000064332117260475665450000001834746872323106992_);" d="M301.776,229.688
			c9.271-18.083,11.694-38.923,6.822-58.679c-0.327-1.326-0.704-2.695-1.152-4.185l0,0c-1.769-5.873-4.521-11.431-8.331-16.238
			c-0.512-0.646-1.037-1.284-1.573-1.912c-16.244-19.015-42.783-28.645-67.441-24.471c-12.213,2.068-23.745,7.489-33.381,15.262
			c14.468-18.42,38.371-29.124,61.761-27.388c24.558,1.823,47.66,17.286,58.707,39.295c0.365,0.727,0.716,1.46,1.053,2.198
			c2.509,5.494,3.83,11.456,4.137,17.488c0.078,1.53,0.115,2.927,0.115,4.273c0,20.037-7.229,39.389-20.357,54.491
			c-0.349,0.401-0.708,0.792-1.064,1.185C301.307,230.57,301.548,230.133,301.776,229.688z"/>
		
			<linearGradient id="SVGID_00000118396620337003259730000006256644177755789221_" gradientUnits="userSpaceOnUse" x1="214.7467" y1="154.5177" x2="282.0266" y2="119.8374" gradientTransform="matrix(-1 0 0 1 517.8227 0)">
			<stop  offset="0" style="stop-color:#000000"/>
			<stop  offset="0.0752" style="stop-color:#030300"/>
			<stop  offset="0.1414" style="stop-color:#0E0D00"/>
			<stop  offset="0.2043" style="stop-color:#201D00"/>
			<stop  offset="0.2652" style="stop-color:#3A3400"/>
			<stop  offset="0.3246" style="stop-color:#5B5200"/>
			<stop  offset="0.3828" style="stop-color:#837600"/>
			<stop  offset="0.4395" style="stop-color:#B2A000"/>
			<stop  offset="0.4948" style="stop-color:#E8D100"/>
			<stop  offset="0.4961" style="stop-color:#E9D200"/>
			<stop  offset="0.5258" style="stop-color:#CFBB00"/>
			<stop  offset="0.5956" style="stop-color:#998A00"/>
			<stop  offset="0.6661" style="stop-color:#6A6000"/>
			<stop  offset="0.7358" style="stop-color:#443D00"/>
			<stop  offset="0.8045" style="stop-color:#262200"/>
			<stop  offset="0.8721" style="stop-color:#110F00"/>
			<stop  offset="0.9379" style="stop-color:#040400"/>
			<stop  offset="1" style="stop-color:#000000"/>
		</linearGradient>
		<path style="fill:url(#SVGID_00000118396620337003259730000006256644177755789221_);" d="M307.446,166.824
			c-1.849-7.816-5.855-15.17-11.383-21.01c-16.138-18.013-42.303-26.804-65.962-21.611c3.984-0.32,7.947-0.67,11.913-0.394
			c15.732,0.57,31.306,6.015,43.94,15.397c3.106,2.279,6.198,4.983,8.882,7.757C300.521,152.528,304.774,159.318,307.446,166.824
			L307.446,166.824z"/>
		
			<linearGradient id="SVGID_00000142176605810618142940000006559124970228528306_" gradientUnits="userSpaceOnUse" x1="214.6927" y1="172.4742" x2="323.2058" y2="172.4742" gradientTransform="matrix(-1 0 0 1 517.8227 0)">
			<stop  offset="0" style="stop-color:#FFF2D4"/>
			<stop  offset="1" style="stop-color:#FFBB1B"/>
		</linearGradient>
		<path style="fill:url(#SVGID_00000142176605810618142940000006559124970228528306_);" d="M194.617,142.276
			c14.174-20.137,39.307-32.021,63.865-30.198c3.281,0.243,6.534,0.738,9.737,1.451c9.12,5.432,17.506,12.097,24.831,19.781
			c-9.645-3.512-19.746-5.768-29.968-6.693c11.847,7.993,22.675,18.788,30.982,30.417c-5.695-4.277-12.127-7.569-18.927-9.688
			c9.309,9.02,17.488,19.419,22.603,31.329c5.116,11.91,7.015,25.438,3.833,38.003c-1.491,5.891-4.188,11.516-7.843,16.374
			c5.445-10.31,7.856-22.241,6.346-33.813c-2.6-19.92-16.661-37.931-35.355-45.287c2.354,1.955,4.239,4.472,5.452,7.281
			c-8.021-5.857-17.35-9.913-27.104-11.785c2.545,2.276,5.001,4.301,7.546,6.577C231.264,162.983,208.427,157.512,194.617,142.276z"
			/>
		
			<linearGradient id="SVGID_00000150095177670863530960000002163411339636802189_" gradientUnits="userSpaceOnUse" x1="224.7729" y1="125.6818" x2="321.1026" y2="125.6818" gradientTransform="matrix(-1 0 0 1 517.8227 0)">
			<stop  offset="0" style="stop-color:#FFBB1B"/>
			<stop  offset="1" style="stop-color:#FFF2D4"/>
		</linearGradient>
		<path style="fill:url(#SVGID_00000150095177670863530960000002163411339636802189_);" d="M261.227,112.345
			c0.709,0.083,1.417,0.173,2.123,0.278c0.051,0.007,0.101,0.017,0.151,0.024c1.582,0.24,3.156,0.533,4.717,0.881c0,0,0,0,0,0
			c9.12,5.432,17.506,12.097,24.831,19.781c-9.393-3.421-19.22-5.639-29.169-6.607c-10.881-3.426-22.525-4.405-33.78-2.5
			c-12.213,2.068-23.745,7.489-33.381,15.262c0,0,0,0,0-0.001c6.756-8.601,15.571-15.518,25.428-20.274
			c0.046-0.022,0.091-0.045,0.137-0.067c0.559-0.268,1.124-0.527,1.689-0.781c0.122-0.055,0.243-0.112,0.365-0.166
			c0.518-0.23,1.041-0.45,1.564-0.668c0.173-0.072,0.345-0.146,0.518-0.216c0.488-0.199,0.979-0.389,1.471-0.578
			c0.214-0.082,0.427-0.165,0.641-0.245c0.465-0.173,0.932-0.339,1.4-0.503c0.245-0.086,0.489-0.172,0.735-0.255
			c0.446-0.151,0.894-0.295,1.342-0.438c0.272-0.086,0.545-0.172,0.818-0.255c0.431-0.131,0.863-0.257,1.296-0.38
			c0.293-0.083,0.587-0.165,0.881-0.245c0.419-0.114,0.84-0.223,1.261-0.329c0.312-0.079,0.625-0.155,0.938-0.229
			c0.407-0.097,0.815-0.191,1.224-0.281c0.33-0.073,0.661-0.141,0.991-0.209c0.397-0.082,0.795-0.161,1.193-0.236
			c0.345-0.065,0.692-0.125,1.038-0.185c0.386-0.067,0.772-0.132,1.16-0.193c0.364-0.057,0.728-0.107,1.093-0.158
			c0.373-0.052,0.746-0.105,1.12-0.151c0.38-0.047,0.76-0.087,1.141-0.128c0.362-0.039,0.725-0.079,1.088-0.112
			c0.393-0.036,0.787-0.064,1.181-0.093c0.352-0.026,0.705-0.055,1.058-0.076c0.41-0.024,0.821-0.039,1.232-0.056
			c0.337-0.014,0.674-0.031,1.011-0.04c0.438-0.011,0.877-0.012,1.315-0.015c0.311-0.002,0.621-0.009,0.931-0.007
			c0.491,0.004,0.981,0.019,1.471,0.033c0.26,0.007,0.52,0.009,0.78,0.02c0.75,0.03,1.499,0.072,2.248,0.128
			c0.806,0.06,1.611,0.136,2.414,0.226C261.006,112.316,261.117,112.333,261.227,112.345z"/>
		
			<linearGradient id="SVGID_00000095317025233977422650000015702523259049185442_" gradientUnits="userSpaceOnUse" x1="164.42" y1="161.6262" x2="199.5466" y2="161.6262" gradientTransform="matrix(0.8286 -0.5599 0.5599 0.8286 -63.3428 147.4063)">
			<stop  offset="0" style="stop-color:#FFBB1B"/>
			<stop  offset="1" style="stop-color:#FF5D12"/>
		</linearGradient>
		<path style="fill:url(#SVGID_00000095317025233977422650000015702523259049185442_);" d="M201.701,183.226
			c-7.89-10.816-18.364-19.734-30.3-25.799c-0.92-0.467-2.602,0.758-3.051,1.687c-7.177,14.829-0.916,34.126,7.352,48.376
			C185.935,202.816,195.975,192.911,201.701,183.226z"/>
		
			<linearGradient id="SVGID_00000063596873884376783140000007289167002635015814_" gradientUnits="userSpaceOnUse" x1="171.2282" y1="180.7505" x2="196.2774" y2="180.7505">
			<stop  offset="0" style="stop-color:#FFFFFF"/>
			<stop  offset="1" style="stop-color:#FF5D12"/>
		</linearGradient>
		<path style="fill:url(#SVGID_00000063596873884376783140000007289167002635015814_);" d="M196.231,184.065
			c-6.316-7.272-13.991-13.361-22.51-17.856c1.391,3.369,3.057,7.738,4.448,11.107c-1.941-0.602-3.883-1.204-5.824-1.806
			c1.592,2.515,3.439,4.869,5.505,7.012c-2.207-0.215-4.414-0.431-6.621-0.646c3.295,4.797,7.027,9.293,11.133,13.417
			c4.236-1.73,8.828-3.403,12.683-5.87C196.126,188.73,196.401,185.338,196.231,184.065z"/>
		
			<linearGradient id="SVGID_00000112628172610314350670000003984610748860922260_" gradientUnits="userSpaceOnUse" x1="193.3124" y1="189.0479" x2="215.3094" y2="189.0479" gradientTransform="matrix(0.9931 -0.1169 0.1169 0.9931 -15.6368 15.8719)">
			<stop  offset="0" style="stop-color:#FFBB1B"/>
			<stop  offset="1" style="stop-color:#FF5D12"/>
		</linearGradient>
		<path style="fill:url(#SVGID_00000112628172610314350670000003984610748860922260_);" d="M221.49,188.67
			c-1.279-8.285-4.541-16.257-9.437-23.063c-0.377-0.525-1.665-0.327-2.182,0.061c-8.256,6.185-10.322,18.719-9.82,29.023
			C207.088,195.033,215.521,192.411,221.49,188.67z"/>
		
			<linearGradient id="SVGID_00000094592705811304169970000000563977054935773334_" gradientUnits="userSpaceOnUse" x1="167.0606" y1="234.616" x2="254.227" y2="234.616">
			<stop  offset="0" style="stop-color:#FFBB1B"/>
			<stop  offset="1" style="stop-color:#FF5D12"/>
		</linearGradient>
		<path style="fill:url(#SVGID_00000094592705811304169970000000563977054935773334_);" d="M233.695,215.922
			c-0.15-4.757,0.939-10.751-0.62-15.248c-3.538-10.206-12.567-18.319-23.091-20.751c-10.525-2.431-22.197,0.9-29.853,8.52
			c-6.531,6.5-10.493,14.977-12.284,24.04c0,0-11.151,57.967,50.538,77.609c0,0-4.362-3.392-4.367-3.396
			c-10.067-7.828-27.235-31.657-14.681-44.267c3.336-3.351,8.889-2.461,13.438-1.172c7.619,2.159,15.311,4.798,23.222,4.445
			c7.912-0.353,15.686-4.882,18.23-12.382C246.787,228.254,239.817,222.521,233.695,215.922z M195.11,266.094L195.11,266.094
			L195.11,266.094L195.11,266.094z"/>
		<path style="fill:#FFFFFF;" d="M221.49,211.489c-1.27-3.298-3.866-6.063-7.077-7.539c-3.211-1.476-7.001-1.644-10.33-0.46
			c1.649,0.378,3.279,0.992,4.929,1.37c-0.18,2.117,0.857,4.396,2.79,5.279s4.156,0.858,6.262,0.576
			C219.151,210.568,220.824,210.616,221.49,211.489z"/>
		
			<linearGradient id="SVGID_00000167395941783014715260000014179426619201024427_" gradientUnits="userSpaceOnUse" x1="185.2244" y1="254.5671" x2="249.3432" y2="254.5671">
			<stop  offset="0" style="stop-color:#FFBB1B"/>
			<stop  offset="1" style="stop-color:#FFF2D4"/>
		</linearGradient>
		<path style="fill:url(#SVGID_00000167395941783014715260000014179426619201024427_);" d="M212.775,241.257
			c7.619,2.159,15.311,4.798,23.222,4.445c4.908-0.219,9.76-2.047,13.346-5.192c-0.161-0.262-0.311-0.531-0.482-0.787
			c-12.067,0.845-24.388-5.041-31.313-14.959c0.354,2.105,0.707,4.209,1.061,6.314c-6.924-5.823-15.596-9.538-24.588-10.535
			c2.245,1.484,4.176,3.438,5.633,5.7c-4.884-0.666-9.954,0.091-14.43,2.155c1.39,0.767,2.779,1.533,4.169,2.3
			c-5.406,13.926-1.624,30.409,7.613,42.15c5.214,6.627,11.951,11.847,19.448,15.742c-1.168-0.908-2.433-1.892-2.436-1.895
			c-10.067-7.828-27.235-31.657-14.681-44.267C202.673,239.079,208.226,239.968,212.775,241.257z M195.11,266.094L195.11,266.094
			L195.11,266.094L195.11,266.094z"/>
		
			<linearGradient id="SVGID_00000080184229157455316000000013183334523529498526_" gradientUnits="userSpaceOnUse" x1="245.432" y1="235.9825" x2="254.227" y2="235.9825">
			<stop  offset="0" style="stop-color:#1F0C02"/>
			<stop  offset="1" style="stop-color:#4F1D05"/>
		</linearGradient>
		<path style="fill:url(#SVGID_00000080184229157455316000000013183334523529498526_);" d="M250.1,230.391
			c-0.931,0.097-1.856,0.264-2.756,0.521c-0.437,0.125-0.883,0.277-1.213,0.589c-0.537,0.507-0.646,1.311-0.68,2.048
			c-0.117,2.494,0.301,5.11,1.763,7.134c0.232,0.321,0.502,0.613,0.789,0.891c2.833-2.067,5.07-4.851,6.225-8.254
			C252.832,232.37,251.46,231.389,250.1,230.391z"/>
	</g>
</g>
<g id="TEXTS">
	<g>
		<g>
			
				<linearGradient id="SVGID_00000059304322744274780060000016070627181549189804_" gradientUnits="userSpaceOnUse" x1="261.8503" y1="363.8779" x2="261.8503" y2="309.5273">
				<stop  offset="0" style="stop-color:#301438"/>
				<stop  offset="1" style="stop-color:#542261"/>
			</linearGradient>
			<path style="fill:url(#SVGID_00000059304322744274780060000016070627181549189804_);" d="M133.527,318.126
				c2.2-0.45,5.35-0.7,8.351-0.7c4.65,0,7.65,0.851,9.75,2.75c1.7,1.5,2.65,3.801,2.65,6.4c0,4.45-2.8,7.4-6.35,8.601v0.15
				c2.6,0.899,4.15,3.3,4.95,6.8c1.1,4.701,1.9,7.951,2.6,9.251h-4.5c-0.55-0.95-1.3-3.851-2.25-8.051c-1-4.65-2.8-6.4-6.75-6.55
				h-4.101v14.601h-4.35V318.126z M137.877,333.477h4.45c4.65,0,7.601-2.55,7.601-6.4c0-4.35-3.15-6.25-7.75-6.3
				c-2.1,0-3.6,0.199-4.3,0.399V333.477z"/>
			
				<linearGradient id="SVGID_00000176727814330203431290000016324863541612451262_" gradientUnits="userSpaceOnUse" x1="261.8503" y1="363.8779" x2="261.8503" y2="309.5273">
				<stop  offset="0" style="stop-color:#301438"/>
				<stop  offset="1" style="stop-color:#542261"/>
			</linearGradient>
			<path style="fill:url(#SVGID_00000176727814330203431290000016324863541612451262_);" d="M189.229,334.177
				c0,11.601-7.05,17.751-15.651,17.751c-8.901,0-15.151-6.9-15.151-17.101c0-10.701,6.65-17.701,15.651-17.701
				C183.279,317.126,189.229,324.177,189.229,334.177z M163.077,334.727c0,7.201,3.9,13.651,10.751,13.651
				c6.9,0,10.8-6.351,10.8-14.001c0-6.7-3.5-13.701-10.75-13.701C166.678,320.676,163.077,327.326,163.077,334.727z"/>
			
				<linearGradient id="SVGID_00000067208776354299941410000000990499868579264418_" gradientUnits="userSpaceOnUse" x1="261.8503" y1="363.8779" x2="261.8503" y2="309.5273">
				<stop  offset="0" style="stop-color:#301438"/>
				<stop  offset="1" style="stop-color:#542261"/>
			</linearGradient>
			<path style="fill:url(#SVGID_00000067208776354299941410000000990499868579264418_);" d="M202.377,351.378v-14.301
				l-10.651-19.401h4.951l4.75,9.301c1.3,2.55,2.3,4.601,3.35,6.95h0.1c0.95-2.2,2.1-4.4,3.4-6.95l4.85-9.301h4.95l-11.3,19.352
				v14.351H202.377z"/>
			
				<linearGradient id="SVGID_00000149364953866400808640000016641361462012956349_" gradientUnits="userSpaceOnUse" x1="261.8503" y1="363.8779" x2="261.8503" y2="309.5273">
				<stop  offset="0" style="stop-color:#301438"/>
				<stop  offset="1" style="stop-color:#542261"/>
			</linearGradient>
			<path style="fill:url(#SVGID_00000149364953866400808640000016641361462012956349_);" d="M227.376,340.777l-3.5,10.601h-4.5
				l11.451-33.702h5.25l11.5,33.702h-4.65l-3.6-10.601H227.376z M238.427,337.377l-3.3-9.7c-0.75-2.2-1.25-4.2-1.75-6.15h-0.1
				c-0.5,2-1.05,4.05-1.7,6.101l-3.3,9.75H238.427z"/>
			
				<linearGradient id="SVGID_00000026162644184140685790000013301853972453905305_" gradientUnits="userSpaceOnUse" x1="261.8503" y1="363.8779" x2="261.8503" y2="309.5273">
				<stop  offset="0" style="stop-color:#301438"/>
				<stop  offset="1" style="stop-color:#542261"/>
			</linearGradient>
			<path style="fill:url(#SVGID_00000026162644184140685790000013301853972453905305_);" d="M252.525,317.676h4.351v30.052h14.4
				v3.65h-18.751V317.676z"/>
			
				<linearGradient id="SVGID_00000047763818320144896750000009985683834408665752_" gradientUnits="userSpaceOnUse" x1="261.8503" y1="363.8779" x2="261.8503" y2="309.5273">
				<stop  offset="0" style="stop-color:#301438"/>
				<stop  offset="1" style="stop-color:#542261"/>
			</linearGradient>
			<path style="fill:url(#SVGID_00000047763818320144896750000009985683834408665752_);" d="M286.724,317.676h18.151v3.65h-13.801
				v11.2h12.751v3.601h-12.751v15.251h-4.351V317.676z"/>
			
				<linearGradient id="SVGID_00000161622804938096667170000006720493143820111288_" gradientUnits="userSpaceOnUse" x1="261.8503" y1="363.8779" x2="261.8503" y2="309.5273">
				<stop  offset="0" style="stop-color:#301438"/>
				<stop  offset="1" style="stop-color:#542261"/>
			</linearGradient>
			<path style="fill:url(#SVGID_00000161622804938096667170000006720493143820111288_);" d="M339.876,334.177
				c0,11.601-7.05,17.751-15.65,17.751c-8.9,0-15.151-6.9-15.151-17.101c0-10.701,6.65-17.701,15.651-17.701
				C333.926,317.126,339.876,324.177,339.876,334.177z M313.725,334.727c0,7.201,3.9,13.651,10.751,13.651
				c6.9,0,10.801-6.351,10.801-14.001c0-6.7-3.5-13.701-10.751-13.701C317.325,320.676,313.725,327.326,313.725,334.727z"/>
			
				<linearGradient id="SVGID_00000142174331300740547610000000984891349232191917_" gradientUnits="userSpaceOnUse" x1="261.8503" y1="363.8779" x2="261.8503" y2="309.5273">
				<stop  offset="0" style="stop-color:#301438"/>
				<stop  offset="1" style="stop-color:#542261"/>
			</linearGradient>
			<path style="fill:url(#SVGID_00000142174331300740547610000000984891349232191917_);" d="M363.975,351.378l-4.3-7.45
				c-1.75-2.851-2.851-4.7-3.9-6.65h-0.1c-0.95,1.95-1.9,3.75-3.65,6.7l-4.051,7.4h-5l10.301-17.051l-9.9-16.651h5.05l4.45,7.9
				c1.25,2.2,2.2,3.9,3.101,5.7h0.15c0.949-2,1.8-3.55,3.05-5.7l4.601-7.9h5l-10.251,16.401l10.501,17.301H363.975z"/>
		</g>
	</g>
	<g>
		<g>
			
				<linearGradient id="SVGID_00000145746220397189962710000001951403144898154891_" gradientUnits="userSpaceOnUse" x1="254.5032" y1="387.8584" x2="254.5032" y2="367.2051">
				<stop  offset="0" style="stop-color:#301438"/>
				<stop  offset="1" style="stop-color:#542261"/>
			</linearGradient>
			<path style="fill:url(#SVGID_00000145746220397189962710000001951403144898154891_);" d="M194.986,383.108v-5.434l-4.046-7.37
				h1.881l1.805,3.533c0.494,0.969,0.874,1.748,1.272,2.641h0.038c0.361-0.836,0.798-1.672,1.292-2.641l1.843-3.533h1.88
				l-4.293,7.352v5.452H194.986z"/>
			
				<linearGradient id="SVGID_00000144295609701951492090000008107452641444594090_" gradientUnits="userSpaceOnUse" x1="254.5032" y1="387.8584" x2="254.5032" y2="367.2051">
				<stop  offset="0" style="stop-color:#301438"/>
				<stop  offset="1" style="stop-color:#542261"/>
			</linearGradient>
			<path style="fill:url(#SVGID_00000144295609701951492090000008107452641444594090_);" d="M213.358,376.573
				c0,4.407-2.679,6.744-5.946,6.744c-3.381,0-5.756-2.622-5.756-6.497c0-4.065,2.526-6.725,5.946-6.725
				C211.097,370.096,213.358,372.774,213.358,376.573z M203.422,376.782c0,2.735,1.482,5.187,4.084,5.187
				c2.622,0,4.103-2.413,4.103-5.319c0-2.546-1.33-5.205-4.084-5.205C204.79,371.444,203.422,373.971,203.422,376.782z"/>
			
				<linearGradient id="SVGID_00000126316239257332762670000016085720610277247377_" gradientUnits="userSpaceOnUse" x1="254.5032" y1="387.8584" x2="254.5032" y2="367.2051">
				<stop  offset="0" style="stop-color:#301438"/>
				<stop  offset="1" style="stop-color:#542261"/>
			</linearGradient>
			<path style="fill:url(#SVGID_00000126316239257332762670000016085720610277247377_);" d="M217.159,370.305v7.579
				c0,2.869,1.272,4.085,2.982,4.085c1.9,0,3.116-1.254,3.116-4.085v-7.579h1.671v7.466c0,3.932-2.07,5.547-4.844,5.547
				c-2.622,0-4.597-1.501-4.597-5.472v-7.541H217.159z"/>
			
				<linearGradient id="SVGID_00000115480383921833660490000005591920816581309868_" gradientUnits="userSpaceOnUse" x1="254.5032" y1="387.8584" x2="254.5032" y2="367.2051">
				<stop  offset="0" style="stop-color:#301438"/>
				<stop  offset="1" style="stop-color:#542261"/>
			</linearGradient>
			<path style="fill:url(#SVGID_00000115480383921833660490000005591920816581309868_);" d="M227.799,370.476
				c0.836-0.171,2.033-0.267,3.172-0.267c1.767,0,2.907,0.323,3.705,1.045c0.646,0.57,1.007,1.444,1.007,2.432
				c0,1.691-1.064,2.812-2.413,3.268v0.058c0.988,0.342,1.577,1.253,1.881,2.583c0.418,1.786,0.722,3.021,0.988,3.515h-1.71
				c-0.209-0.361-0.494-1.463-0.855-3.059c-0.38-1.767-1.063-2.432-2.564-2.488h-1.558v5.547h-1.653V370.476z M229.452,376.308h1.69
				c1.767,0,2.888-0.969,2.888-2.432c0-1.653-1.197-2.375-2.944-2.394c-0.798,0-1.368,0.075-1.634,0.151V376.308z"/>
			
				<linearGradient id="SVGID_00000048469270073628496920000006123377508703289999_" gradientUnits="userSpaceOnUse" x1="254.5032" y1="387.8584" x2="254.5032" y2="367.2051">
				<stop  offset="0" style="stop-color:#301438"/>
				<stop  offset="1" style="stop-color:#542261"/>
			</linearGradient>
			<path style="fill:url(#SVGID_00000048469270073628496920000006123377508703289999_);" d="M244.48,371.71h-3.895v-1.405h9.479
				v1.405h-3.913v11.398h-1.672V371.71z"/>
			
				<linearGradient id="SVGID_00000179604975438264669870000002072216399776799928_" gradientUnits="userSpaceOnUse" x1="254.5032" y1="387.8584" x2="254.5032" y2="367.2051">
				<stop  offset="0" style="stop-color:#301438"/>
				<stop  offset="1" style="stop-color:#542261"/>
			</linearGradient>
			<path style="fill:url(#SVGID_00000179604975438264669870000002072216399776799928_);" d="M253.563,379.081l-1.33,4.027h-1.709
				l4.35-12.804h1.994l4.37,12.804h-1.768l-1.367-4.027H253.563z M257.761,377.789l-1.254-3.686
				c-0.285-0.836-0.476-1.596-0.665-2.337h-0.038c-0.189,0.761-0.398,1.539-0.646,2.318l-1.254,3.704H257.761z"/>
			
				<linearGradient id="SVGID_00000114056887863843076490000009967544505704187581_" gradientUnits="userSpaceOnUse" x1="254.5032" y1="387.8584" x2="254.5032" y2="367.2051">
				<stop  offset="0" style="stop-color:#301438"/>
				<stop  offset="1" style="stop-color:#542261"/>
			</linearGradient>
			<path style="fill:url(#SVGID_00000114056887863843076490000009967544505704187581_);" d="M272.864,382.538
				c-0.74,0.267-2.203,0.703-3.932,0.703c-1.938,0-3.533-0.494-4.787-1.69c-1.103-1.064-1.786-2.773-1.786-4.769
				c0.02-3.818,2.641-6.611,6.934-6.611c1.482,0,2.641,0.323,3.191,0.589l-0.398,1.35c-0.684-0.305-1.539-0.552-2.831-0.552
				c-3.115,0-5.147,1.938-5.147,5.148c0,3.249,1.956,5.168,4.938,5.168c1.083,0,1.824-0.152,2.204-0.343v-3.818h-2.603v-1.329h4.217
				V382.538z"/>
			
				<linearGradient id="SVGID_00000135648836528119917790000007722199620969880243_" gradientUnits="userSpaceOnUse" x1="254.5032" y1="387.8584" x2="254.5032" y2="367.2051">
				<stop  offset="0" style="stop-color:#301438"/>
				<stop  offset="1" style="stop-color:#542261"/>
			</linearGradient>
			<path style="fill:url(#SVGID_00000135648836528119917790000007722199620969880243_);" d="M275.393,370.305h1.653v11.417h5.471
				v1.387h-7.124V370.305z"/>
			
				<linearGradient id="SVGID_00000123411419587365521400000002559910714851306647_" gradientUnits="userSpaceOnUse" x1="254.5032" y1="387.8584" x2="254.5032" y2="367.2051">
				<stop  offset="0" style="stop-color:#301438"/>
				<stop  offset="1" style="stop-color:#542261"/>
			</linearGradient>
			<path style="fill:url(#SVGID_00000123411419587365521400000002559910714851306647_);" d="M286.014,370.305v12.804h-1.653v-12.804
				H286.014z"/>
			
				<linearGradient id="SVGID_00000125569684160307459380000012194908558437938860_" gradientUnits="userSpaceOnUse" x1="254.5032" y1="387.8584" x2="254.5032" y2="367.2051">
				<stop  offset="0" style="stop-color:#301438"/>
				<stop  offset="1" style="stop-color:#542261"/>
			</linearGradient>
			<path style="fill:url(#SVGID_00000125569684160307459380000012194908558437938860_);" d="M288.901,383.108v-12.804h1.805
				l4.104,6.478c0.95,1.501,1.691,2.85,2.299,4.16l0.038-0.019c-0.152-1.71-0.189-3.268-0.189-5.263v-5.356h1.558v12.804h-1.672
				l-4.065-6.497c-0.893-1.425-1.748-2.888-2.394-4.274l-0.058,0.02c0.096,1.614,0.134,3.153,0.134,5.281v5.471H288.901z"/>
			
				<linearGradient id="SVGID_00000157990938800466116780000011692148686473589132_" gradientUnits="userSpaceOnUse" x1="254.5032" y1="387.8584" x2="254.5032" y2="367.2051">
				<stop  offset="0" style="stop-color:#301438"/>
				<stop  offset="1" style="stop-color:#542261"/>
			</linearGradient>
			<path style="fill:url(#SVGID_00000157990938800466116780000011692148686473589132_);" d="M308.034,377.105h-4.978v4.616h5.547
				v1.387h-7.2v-12.804h6.915v1.387h-5.262v4.046h4.978V377.105z"/>
		</g>
	</g>
</g>
</svg>
